<svg width="382" height="382" viewBox="0 0 382 382" fill="none" xmlns="http://www.w3.org/2000/svg">
<g filter="url(#filter0_d)">
<circle cx="191" cy="182.751" r="182.5" fill="#260E4B"/>
<path d="M109.934 132.874C108.567 131.507 108.567 129.291 109.934 127.925L189.808 48.051C191.175 46.6841 193.391 46.6841 194.758 48.051L273.69 126.983C275.057 128.35 275.057 130.566 273.69 131.933L193.816 211.806C192.449 213.173 190.233 213.173 188.867 211.806L109.934 132.874Z" stroke="#30D5AE" stroke-width="3"/>
<line x1="153.491" y1="67.9776" x2="140.415" y2="54.2867" stroke="#30D5AE" stroke-width="3"/>
<rect x="105.337" y="150.726" width="172.816" height="93.8571" fill="#260E4B"/>
<line x1="131.168" y1="88.8594" x2="108.064" y2="65.7556" stroke="#30D5AE" stroke-width="3"/>
<line x1="234.837" y1="70.2183" x2="257.941" y2="47.1145" stroke="#30D5AE" stroke-width="3"/>
<line x1="257.416" y1="89.3569" x2="270.434" y2="76.1959" stroke="#30D5AE" stroke-width="3"/>
<line x1="108.014" y1="152.216" x2="172.079" y2="152.216" stroke="#30D5AE" stroke-width="3"/>
<line x1="234.646" y1="152.216" x2="277.85" y2="152.216" stroke="#30D5AE" stroke-width="3"/>
<line x1="149.728" y1="173.073" x2="213.793" y2="173.073" stroke="#30D5AE" stroke-width="3"/>
<line x1="108.014" y1="193.93" x2="277.85" y2="193.93" stroke="#30D5AE" stroke-width="3"/>
<path d="M164.66 234.011C163.508 232.987 162.068 232.219 160.34 231.707C158.612 231.131 156.916 230.843 155.252 230.843C153.396 230.843 151.7 231.195 150.164 231.899C148.628 232.539 147.284 233.467 146.132 234.683C145.044 235.835 144.18 237.243 143.54 238.907C142.9 240.571 142.58 242.363 142.58 244.283C142.58 246.203 142.932 247.995 143.636 249.659C144.34 251.323 145.3 252.763 146.516 253.979C147.732 255.131 149.14 256.059 150.74 256.763C152.404 257.403 154.164 257.723 156.02 257.723C158.196 257.723 160.18 257.275 161.972 256.379C163.764 255.419 165.3 254.139 166.58 252.539H160.82V239.099H185.492V260.411C184.02 263.035 182.26 265.435 180.212 267.611C178.164 269.723 175.86 271.547 173.3 273.083C170.804 274.619 168.084 275.803 165.14 276.635C162.196 277.467 159.156 277.883 156.02 277.883C151.412 277.883 147.06 277.019 142.964 275.291C138.868 273.563 135.284 271.195 132.212 268.187C129.204 265.179 126.804 261.627 125.012 257.531C123.284 253.435 122.42 249.019 122.42 244.283C122.42 239.675 123.252 235.323 124.916 231.227C126.58 227.131 128.852 223.579 131.732 220.571C134.676 217.499 138.132 215.099 142.1 213.371C146.132 211.579 150.452 210.683 155.06 210.683C158.644 210.683 161.748 211.035 164.372 211.739C166.996 212.443 169.204 213.243 170.996 214.139C173.108 215.163 174.868 216.283 176.276 217.499L164.66 234.011ZM198.957 244.283C198.957 239.675 199.821 235.323 201.549 231.227C203.341 227.131 205.741 223.579 208.749 220.571C211.821 217.499 215.405 215.099 219.501 213.371C223.597 211.579 227.949 210.683 232.557 210.683C237.166 210.683 241.518 211.579 245.614 213.371C249.71 215.099 253.262 217.499 256.27 220.571C259.342 223.579 261.742 227.131 263.47 231.227C265.262 235.323 266.158 239.675 266.158 244.283C266.158 248.891 265.262 253.243 263.47 257.339C261.742 261.435 259.342 265.019 256.27 268.091C253.262 271.099 249.71 273.499 245.614 275.291C241.518 277.019 237.166 277.883 232.557 277.883C227.949 277.883 223.597 277.019 219.501 275.291C215.405 273.499 211.821 271.099 208.749 268.091C205.741 265.019 203.341 261.435 201.549 257.339C199.821 253.243 198.957 248.891 198.957 244.283ZM219.117 244.283C219.117 246.139 219.469 247.899 220.173 249.563C220.877 251.163 221.837 252.571 223.054 253.787C224.27 255.003 225.678 255.963 227.278 256.667C228.942 257.371 230.701 257.723 232.557 257.723C234.413 257.723 236.142 257.371 237.742 256.667C239.406 255.963 240.845 255.003 242.061 253.787C243.278 252.571 244.238 251.163 244.941 249.563C245.646 247.899 245.998 246.139 245.998 244.283C245.998 242.427 245.646 240.699 244.941 239.099C244.238 237.435 243.278 235.995 242.061 234.779C240.845 233.563 239.406 232.603 237.742 231.899C236.142 231.195 234.413 230.843 232.557 230.843C230.701 230.843 228.942 231.195 227.278 231.899C225.678 232.603 224.27 233.563 223.054 234.779C221.837 235.995 220.877 237.435 220.173 239.099C219.469 240.699 219.117 242.427 219.117 244.283Z" fill="#30D5AE"/>
<path d="M143.632 289.811C145.696 289.811 147.436 290.231 148.852 291.071C150.268 291.911 151.468 293.111 152.452 294.671C152.74 295.127 152.884 295.559 152.884 295.967C152.884 296.495 152.644 296.927 152.164 297.263C151.9 297.431 151.588 297.515 151.228 297.515C150.868 297.515 150.532 297.431 150.22 297.263C149.908 297.071 149.668 296.819 149.5 296.507C148.852 295.427 148.036 294.611 147.052 294.059C146.092 293.483 144.868 293.195 143.38 293.195C141.556 293.195 140.08 293.555 138.952 294.275C137.824 294.971 137.26 295.991 137.26 297.335C137.26 298.583 137.764 299.627 138.772 300.467C139.78 301.307 141.58 301.859 144.172 302.123C147.052 302.411 149.284 303.287 150.868 304.751C152.452 306.191 153.244 308.099 153.244 310.475C153.244 312.203 152.776 313.691 151.84 314.939C150.904 316.163 149.656 317.087 148.096 317.711C146.56 318.311 144.904 318.611 143.128 318.611C140.8 318.611 138.676 318.083 136.756 317.027C134.86 315.971 133.552 314.591 132.832 312.887C132.712 312.599 132.652 312.359 132.652 312.167C132.652 311.807 132.784 311.495 133.048 311.231C133.312 310.943 133.672 310.751 134.128 310.655C134.2 310.631 134.32 310.619 134.488 310.619C134.872 310.619 135.232 310.739 135.568 310.979C135.928 311.195 136.192 311.495 136.36 311.879C136.792 312.815 137.644 313.607 138.916 314.255C140.188 314.903 141.592 315.227 143.128 315.227C144.928 315.227 146.452 314.819 147.7 314.003C148.948 313.163 149.572 312.023 149.572 310.583C149.572 309.215 149.044 308.051 147.988 307.091C146.932 306.107 145.324 305.507 143.164 305.291C140.188 305.003 137.848 304.139 136.144 302.699C134.44 301.235 133.588 299.411 133.588 297.227C133.588 295.691 134.02 294.371 134.884 293.267C135.772 292.139 136.972 291.287 138.484 290.711C140.02 290.111 141.736 289.811 143.632 289.811ZM205.93 314.795C206.482 314.795 206.926 314.951 207.262 315.263C207.598 315.575 207.766 315.983 207.766 316.487C207.766 317.015 207.598 317.447 207.262 317.783C206.926 318.095 206.482 318.251 205.93 318.251H189.658C189.13 318.251 188.686 318.071 188.326 317.711C187.966 317.351 187.786 316.907 187.786 316.379V292.007C187.786 291.455 187.966 291.011 188.326 290.675C188.686 290.315 189.13 290.135 189.658 290.135H205.93C206.482 290.135 206.926 290.303 207.262 290.639C207.598 290.951 207.766 291.371 207.766 291.899C207.766 292.403 207.598 292.811 207.262 293.123C206.926 293.435 206.482 293.591 205.93 293.591H191.53V302.339H201.862C202.39 302.339 202.822 302.507 203.158 302.843C203.518 303.155 203.698 303.563 203.698 304.067C203.698 304.571 203.518 304.991 203.158 305.327C202.822 305.639 202.39 305.795 201.862 305.795H191.53V314.795H205.93ZM259.937 314.795C260.489 314.795 260.933 314.951 261.269 315.263C261.605 315.575 261.773 315.983 261.773 316.487C261.773 317.015 261.605 317.447 261.269 317.783C260.933 318.095 260.489 318.251 259.937 318.251H243.665C243.137 318.251 242.693 318.071 242.333 317.711C241.973 317.351 241.793 316.907 241.793 316.379V292.007C241.793 291.455 241.973 291.011 242.333 290.675C242.693 290.315 243.137 290.135 243.665 290.135H259.937C260.489 290.135 260.933 290.303 261.269 290.639C261.605 290.951 261.773 291.371 261.773 291.899C261.773 292.403 261.605 292.811 261.269 293.123C260.933 293.435 260.489 293.591 259.937 293.591H245.537V302.339H255.869C256.397 302.339 256.829 302.507 257.165 302.843C257.525 303.155 257.705 303.563 257.705 304.067C257.705 304.571 257.525 304.991 257.165 305.327C256.829 305.639 256.397 305.795 255.869 305.795H245.537V314.795H259.937Z" fill="#30D5AE"/>
</g>
<defs>
<filter id="filter0_d" x="0.5" y="0.250702" width="381" height="381" filterUnits="userSpaceOnUse" color-interpolation-filters="sRGB">
<feFlood flood-opacity="0" result="BackgroundImageFix"/>
<feColorMatrix in="SourceAlpha" type="matrix" values="0 0 0 0 0 0 0 0 0 0 0 0 0 0 0 0 0 0 127 0"/>
<feOffset dy="8"/>
<feGaussianBlur stdDeviation="4"/>
<feColorMatrix type="matrix" values="0 0 0 0 0 0 0 0 0 0 0 0 0 0 0 0 0 0 0.5 0"/>
<feBlend mode="normal" in2="BackgroundImageFix" result="effect1_dropShadow"/>
<feBlend mode="normal" in="SourceGraphic" in2="effect1_dropShadow" result="shape"/>
</filter>
</defs>
</svg>
